<svg xmlns="http://www.w3.org/2000/svg" width="153" height="80" viewBox="0 0 153 80">
  <g fill="none" fill-rule="evenodd" transform="translate(32 9)">
    <path fill="#1791FF" d="M29.5,8.5 L28.706,8.5 C28.439,8.5 28.212,8.318 28.135,8.063 C27.969,7.506 27.747,6.974 27.475,6.472 C27.348,6.236 27.381,5.947 27.57,5.759 L28.132,5.196 C28.522,4.806 28.522,4.173 28.132,3.782 L26.718,2.368 C26.327,1.978 25.694,1.978 25.303,2.368 L24.742,2.93 C24.552,3.119 24.264,3.151 24.029,3.024 C23.526,2.753 22.994,2.531 22.437,2.364 C22.181,2.288 22,2.062 22,1.794 L22,1 C22,0.447 21.552,0 21,0 L19,0 C18.448,0 18,0.447 18,1 L18,1.794 C18,2.062 17.819,2.288 17.563,2.364 C17.006,2.531 16.474,2.753 15.972,3.024 C15.736,3.151 15.448,3.119 15.259,2.93 L14.697,2.368 C14.306,1.978 13.673,1.978 13.282,2.368 L11.868,3.782 C11.478,4.173 11.478,4.806 11.868,5.196 L12.75,6.079 C12.298,6.819 11.956,7.633 11.747,8.5 L10.5,8.5 C9.948,8.5 9.5,8.947 9.5,9.5 L9.5,11.5 C9.5,12.053 9.948,12.5 10.5,12.5 L11.747,12.5 C11.956,13.367 12.298,14.181 12.75,14.921 L11.868,15.803 C11.478,16.193 11.478,16.827 11.868,17.218 L13.283,18.632 C13.673,19.022 14.306,19.022 14.697,18.632 L15.579,17.749 C16.319,18.202 17.133,18.544 18,18.753 L18,20 C18,20.553 18.448,21 19,21 L21,21 C21.552,21 22,20.553 22,20 L22,18.753 C22.867,18.544 23.681,18.202 24.421,17.749 L25.303,18.632 C25.694,19.022 26.327,19.022 26.718,18.632 L28.132,17.218 C28.522,16.827 28.522,16.193 28.132,15.803 L27.57,15.241 C27.381,15.052 27.348,14.764 27.475,14.528 C27.747,14.026 27.969,13.494 28.135,12.937 C28.212,12.681 28.439,12.5 28.706,12.5 L29.5,12.5 C30.052,12.5 30.5,12.053 30.5,11.5 L30.5,9.5 C30.5,8.947 30.052,8.5 29.5,8.5"/>
    <path fill="#FFF" d="M66,58 L24,58 C21.239,58 19,55.762 19,53 L19,31.548 L22,24 L19,19.5 L19,11 C19,8.238 21.239,6 24,6 L66,6 C68.761,6 71,8.238 71,11 L71,53 C71,55.762 68.761,58 66,58"/>
    <path fill="#9ED1FF" d="M57,43 L33,43 C31.896,43 31,42.104 31,41 L31,24 C31,22.896 31.896,22 33,22 L57,22 C58.104,22 59,22.896 59,24 L59,41 C59,42.104 58.104,43 57,43"/>
    <path fill="#1791FF" d="M53.5,45 L36.5,45 C35.119,45 34,43.881 34,42.5 L34,20.5 C34,19.119 35.119,18 36.5,18 L53.5,18 C54.881,18 56,19.119 56,20.5 L56,42.5 C56,43.881 54.881,45 53.5,45"/>
    <path fill="#9ED1FF" d="M49 27C49 29.209 47.209 31 45 31 42.791 31 41 29.209 41 27 41 24.791 42.791 23 45 23 47.209 23 49 24.791 49 27M49 36L41 36C40.45 36 40 35.55 40 35 40 34.45 40.45 34 41 34L49 34C49.55 34 50 34.45 50 35 50 35.55 49.55 36 49 36M47 40L43 40C42.45 40 42 39.55 42 39 42 38.45 42.45 38 43 38L47 38C47.55 38 48 38.45 48 39 48 39.55 47.55 40 47 40"/>
    <path fill="#D8EDFF" d="M27.0078,20 L26.0198,20 C25.5878,20 25.2228,19.711 25.0858,19.301 C24.9328,18.843 24.7488,18.398 24.5338,17.972 C24.3438,17.594 24.3968,17.139 24.6958,16.84 L25.4048,16.131 C25.7928,15.743 25.7928,15.115 25.4048,14.728 L23.2728,12.595 C22.8848,12.207 22.2578,12.207 21.8698,12.595 L21.1808,13.284 C20.8688,13.596 20.3968,13.65 20.0028,13.453 C19.6808,13.292 19.3398,13.168 18.9998,13.041 L18.9998,31.958 C19.3398,31.831 19.6818,31.708 20.0028,31.547 C20.3968,31.35 20.8688,31.404 21.1798,31.716 L21.8698,32.405 C22.2578,32.793 22.8848,32.793 23.2728,32.405 L25.4048,30.272 C25.7928,29.885 25.7928,29.257 25.4048,28.869 L24.6958,28.16 C24.3968,27.86 24.3438,27.406 24.5338,27.027 C24.7478,26.602 24.9328,26.157 25.0858,25.699 C25.2228,25.289 25.5878,25 26.0198,25 L27.0078,25 C27.5558,25 27.9998,24.556 27.9998,24.008 L27.9998,20.992 C27.9998,20.444 27.5558,20 27.0078,20"/>
    <path fill="#6C48EF" d="M25,21.0078 L25,17.9918 C25,17.4448 24.556,16.9998 24.008,16.9998 L23.02,16.9998 C22.588,16.9998 22.223,16.7108 22.086,16.3008 C21.933,15.8428 21.748,15.3988 21.534,14.9718 C21.344,14.5938 21.396,14.1388 21.696,13.8398 L22.405,13.1308 C22.792,12.7428 22.792,12.1148 22.405,11.7278 L20.273,9.5948 C19.885,9.2068 19.257,9.2068 18.87,9.5948 L18.18,10.2838 C17.869,10.5958 17.397,10.6508 17.003,10.4528 C16.559,10.2308 16.097,10.0398 15.618,9.8838 C15.195,9.7458 14.902,9.3628 14.92,8.9188 L14.957,8.0328 C14.98,7.4698 14.53,6.9998 13.966,6.9998 L11.034,6.9998 C10.47,6.9998 10.02,7.4698 10.043,8.0328 L10.08,8.9188 C10.098,9.3628 9.805,9.7458 9.382,9.8838 C8.903,10.0398 8.441,10.2308 7.997,10.4528 C7.603,10.6508 7.131,10.5958 6.82,10.2838 L6.13,9.5948 C5.743,9.2068 5.115,9.2068 4.727,9.5948 L2.595,11.7278 C2.208,12.1148 2.208,12.7428 2.595,13.1308 L3.304,13.8398 C3.604,14.1388 3.656,14.5938 3.466,14.9718 C3.252,15.3988 3.067,15.8428 2.914,16.3008 C2.777,16.7108 2.412,16.9998 1.98,16.9998 L0.992,16.9998 C0.444,16.9998 0,17.4448 0,17.9918 L0,21.0078 C0,21.5558 0.444,21.9998 0.992,21.9998 L1.98,21.9998 C2.412,21.9998 2.777,22.2888 2.914,22.6988 C3.067,23.1568 3.252,23.6008 3.466,24.0288 C3.656,24.4058 3.604,24.8618 3.304,25.1598 L2.595,25.8688 C2.208,26.2568 2.208,26.8848 2.595,27.2728 L4.727,29.4048 C5.115,29.7918 5.743,29.7918 6.13,29.4048 L6.82,28.7158 C7.131,28.4038 7.603,28.3498 7.997,28.5468 C8.45,28.7748 8.923,28.9688 9.412,29.1258 C9.835,29.2628 10.135,29.6368 10.135,30.0808 L10.135,31.0078 C10.135,31.5558 10.579,31.9998 11.127,31.9998 L13.873,31.9998 C14.421,31.9998 14.865,31.5558 14.865,31.0078 L14.865,30.0808 C14.865,29.6368 15.165,29.2628 15.588,29.1258 C16.077,28.9688 16.55,28.7748 17.003,28.5468 C17.397,28.3498 17.869,28.4038 18.18,28.7158 L18.87,29.4048 C19.257,29.7918 19.885,29.7918 20.273,29.4048 L22.405,27.2728 C22.792,26.8848 22.792,26.2568 22.405,25.8688 L21.696,25.1598 C21.396,24.8608 21.344,24.4058 21.534,24.0278 C21.748,23.6008 21.933,23.1568 22.086,22.6988 C22.223,22.2888 22.588,21.9998 23.02,21.9998 L24.008,21.9998 C24.556,21.9998 25,21.5558 25,21.0078"/>
    <path fill="#FFF" d="M12.5,24 C10.015,24 8,21.985 8,19.5 C8,17.015 10.015,15 12.5,15 C14.985,15 17,17.015 17,19.5 C17,21.985 14.985,24 12.5,24"/>
  </g>
</svg>
